# Blender 4.2.3 LTS
# www.blender.org
mtllib lightning.mtl
o Plane
v -0.413770 5.616468 0.000000
v -0.868147 -5.616468 0.000000
v 0.919102 5.616468 -0.000000
v 0.464725 -5.616468 -0.000000
v -0.800490 4.368364 0.000000
v -1.157526 3.120260 0.000001
v -1.075667 1.872156 0.000001
v -0.467606 0.624052 0.000000
v -0.000970 -0.624052 0.000000
v -0.472439 -1.872156 0.000000
v -0.771544 -3.120260 0.000000
v -1.003496 -4.368364 0.000000
v 0.329376 -4.368364 -0.000000
v 0.561328 -3.120260 -0.000000
v 0.860433 -1.872156 -0.000000
v 1.331902 -0.624052 -0.000001
v 0.865267 0.624052 -0.000000
v 0.257205 1.872156 -0.000000
v 0.175346 3.120260 -0.000000
v 0.532382 4.368364 -0.000000
vn -0.0000 -0.0000 1.0000
vt 0.888889 0.000000
vt 1.000000 0.000000
vt 1.000000 1.000000
vt 0.888889 1.000000
vt 0.000000 0.000000
vt 0.111111 0.000000
vt 0.111111 1.000000
vt 0.000000 1.000000
vt 0.222222 0.000000
vt 0.222222 1.000000
vt 0.333333 0.000000
vt 0.333333 1.000000
vt 0.444444 0.000000
vt 0.444444 1.000000
vt 0.555556 0.000000
vt 0.555556 1.000000
vt 0.666667 0.000000
vt 0.666667 1.000000
vt 0.777778 0.000000
vt 0.777778 1.000000
s 0
f 12/1/1 2/2/1 4/3/1 13/4/1
f 1/5/1 5/6/1 20/7/1 3/8/1
f 5/6/1 6/9/1 19/10/1 20/7/1
f 6/9/1 7/11/1 18/12/1 19/10/1
f 7/11/1 8/13/1 17/14/1 18/12/1
f 8/13/1 9/15/1 16/16/1 17/14/1
f 9/15/1 10/17/1 15/18/1 16/16/1
f 10/17/1 11/19/1 14/20/1 15/18/1
f 11/19/1 12/1/1 13/4/1 14/20/1
